<svg xmlns="http://www.w3.org/2000/svg" viewBox="0 0 48 48" fill="none">
  <!-- Carro grande centro -->
  <rect x="10" y="22" width="28" height="12" rx="3" fill="#a84bb1"/>
  <rect x="14" y="16" width="20" height="10" rx="2" fill="#c96fd4"/>
  <circle cx="16" cy="35" r="3.5" fill="#1a1d2e"/>
  <circle cx="32" cy="35" r="3.5" fill="#1a1d2e"/>
  <circle cx="16" cy="35" r="1.5" fill="#e2e8f0"/>
  <circle cx="32" cy="35" r="1.5" fill="#e2e8f0"/>
  <rect x="15" y="18" width="8" height="6" rx="1" fill="#dbe8ff" opacity="0.8"/>
  <rect x="25" y="18" width="7" height="6" rx="1" fill="#dbe8ff" opacity="0.8"/>
  <!-- Moto izquierda -->
  <ellipse cx="7" cy="36" rx="3" ry="3" fill="#1a1d2e"/>
  <ellipse cx="7" cy="36" rx="1.2" ry="1.2" fill="#e2e8f0"/>
  <rect x="5" y="28" width="6" height="7" rx="2" fill="#d62dac"/>
  <rect x="6" y="25" width="4" height="5" rx="1" fill="#f74ff7"/>
  <!-- Bus derecha -->
  <rect x="38" y="18" width="8" height="18" rx="2" fill="#875194"/>
  <rect x="39" y="19" width="6" height="4" rx="1" fill="#dbe8ff" opacity="0.7"/>
  <rect x="39" y="24" width="6" height="4" rx="1" fill="#dbe8ff" opacity="0.7"/>
  <circle cx="40" cy="37" r="2" fill="#1a1d2e"/>
  <circle cx="44" cy="37" r="2" fill="#1a1d2e"/>
</svg>
